<svg width="31" height="31" viewBox="0 0 31 31" fill="none" xmlns="http://www.w3.org/2000/svg">
<path d="M30.1361 15.9495C30.1361 7.63531 23.3919 0.898991 15.0681 0.898991C6.74416 0.898991 -7.62939e-06 7.63531 -7.62939e-06 15.9495C-7.62939e-06 24.2637 6.74416 31 15.0681 31C23.3919 31 30.1361 24.2637 30.1361 15.9495ZM2.91639 15.9495C2.91639 9.24352 8.35426 3.81199 15.0681 3.81199C21.7818 3.81199 27.2197 9.24352 27.2197 15.9495C27.2197 22.6555 21.7818 28.087 15.0681 28.087C8.35426 28.087 2.91639 22.6555 2.91639 15.9495ZM7.29099 17.1632V14.7357C7.29099 14.3352 7.61908 14.0075 8.02009 14.0075L15.0681 14.0075V9.94143C15.0681 9.29207 15.8518 8.97043 16.3136 9.42559L22.3287 15.4337C22.6142 15.7189 22.6142 16.1801 22.3287 16.4653L16.3136 22.4734C15.8518 22.9346 15.0681 22.6069 15.0681 21.9576V17.8915H8.02009C7.61908 17.8915 7.29099 17.5638 7.29099 17.1632Z" fill="black"/>
</svg>
