<svg width="398" height="158" viewBox="0 0 398 158" fill="none" xmlns="http://www.w3.org/2000/svg">
<g filter="url(#filter0_d)">
<circle cx="152" cy="70" r="50" fill="#020202"/>
<path d="M138.768 51.52H136.368C135.664 49.664 134.928 47.488 134.16 44.992C133.456 42.496 132.848 40.128 132.336 37.888C134.576 35.968 137.264 34.464 140.4 33.376C143.536 32.224 146.928 31.648 150.576 31.648C153.776 31.648 156.528 32.096 158.832 32.992C161.136 33.888 163.024 35.104 164.496 36.64C166.032 38.176 167.152 39.968 167.856 42.016C168.56 44 168.912 46.08 168.912 48.256C168.912 51.84 168.08 55.52 166.416 59.296C164.752 63.072 162.672 66.752 160.176 70.336C157.744 73.856 155.088 77.184 152.208 80.32C149.328 83.456 146.672 86.208 144.24 88.576L140.208 92.32V92.704L145.584 92.128H162.096L166.8 81.376H169.2C169.328 82.784 169.456 84.32 169.584 85.984C169.712 87.648 169.808 89.344 169.872 91.072C170 92.736 170.096 94.368 170.16 95.968C170.224 97.504 170.256 98.848 170.256 100H130.608V96.928C132.016 95.456 133.712 93.664 135.696 91.552C137.744 89.44 139.856 87.104 142.032 84.544C144.208 81.984 146.352 79.264 148.464 76.384C150.64 73.504 152.56 70.592 154.224 67.648C155.888 64.64 157.232 61.664 158.256 58.72C159.344 55.776 159.888 52.96 159.888 50.272C159.888 48.416 159.632 46.656 159.12 44.992C158.672 43.328 157.968 41.888 157.008 40.672C156.048 39.392 154.864 38.4 153.456 37.696C152.112 36.992 150.544 36.64 148.752 36.64C147.408 36.64 146.224 36.736 145.2 36.928C144.176 37.12 143.056 37.408 141.84 37.792L138.768 51.52Z" fill="white"/>
<path d="M4.44 54.304C6.872 52.768 9.432 51.68 12.12 51.04V42.88C12.952 42.176 13.912 41.568 15 41.056C16.152 40.48 17.272 39.936 18.36 39.424H20.76V52H35.16V56.8H20.76V84.64C20.76 88.48 21.368 91.2 22.584 92.8C23.8 94.4 25.624 95.2 28.056 95.2C29.208 95.2 30.648 95.136 32.376 95.008C34.104 94.816 35.576 94.496 36.792 94.048L37.464 95.488C36.952 96.064 36.216 96.672 35.256 97.312C34.36 97.952 33.304 98.56 32.088 99.136C30.936 99.712 29.656 100.192 28.248 100.576C26.84 100.96 25.4 101.152 23.928 101.152C20.088 101.152 17.144 100.064 15.096 97.888C13.112 95.712 12.12 92.192 12.12 87.328V56.8H4.44V54.304ZM42.561 76C42.561 71.968 43.073 68.416 44.097 65.344C45.185 62.208 46.721 59.584 48.705 57.472C50.689 55.296 53.057 53.664 55.809 52.576C58.625 51.424 61.729 50.848 65.121 50.848C69.089 50.848 72.513 51.456 75.393 52.672C78.273 53.888 80.609 55.616 82.401 57.856C84.257 60.032 85.601 62.656 86.433 65.728C87.329 68.8 87.777 72.224 87.777 76C87.777 84.064 85.729 90.272 81.633 94.624C77.537 98.976 72.033 101.152 65.121 101.152C61.281 101.152 57.953 100.576 55.137 99.424C52.321 98.208 49.985 96.512 48.129 94.336C46.273 92.096 44.865 89.44 43.905 86.368C43.009 83.232 42.561 79.776 42.561 76ZM51.777 76C51.777 78.88 52.033 81.6 52.545 84.16C53.121 86.72 53.985 88.96 55.137 90.88C56.353 92.736 57.921 94.208 59.841 95.296C61.761 96.384 64.065 96.928 66.753 96.928C70.209 96.928 73.025 95.232 75.201 91.84C77.441 88.448 78.561 83.168 78.561 76C78.561 73.056 78.273 70.336 77.697 67.84C77.185 65.28 76.353 63.072 75.201 61.216C74.049 59.296 72.577 57.792 70.785 56.704C68.993 55.616 66.849 55.072 64.353 55.072C60.577 55.072 57.537 56.768 55.233 60.16C52.929 63.552 51.777 68.832 51.777 76ZM231.83 59.2C231.126 59.584 230.23 60.384 229.142 61.6C228.118 62.752 227.19 64.48 226.358 66.784V95.296C227.638 95.424 228.918 95.68 230.198 96.064C231.478 96.384 232.758 96.896 234.038 97.6V100H211.382V97.6C212.534 96.96 213.622 96.48 214.646 96.16C215.67 95.84 216.694 95.552 217.718 95.296V57.568L211.382 56.8V54.304C213.43 53.408 215.542 52.704 217.718 52.192C219.894 51.616 221.974 51.168 223.958 50.848H226.358V61.024H226.742C227.318 59.744 228.118 58.464 229.142 57.184C230.23 55.904 231.446 54.752 232.79 53.728C234.198 52.704 235.702 51.936 237.302 51.424C238.966 50.848 240.662 50.656 242.39 50.848C242.838 51.68 243.222 52.608 243.542 53.632C243.926 54.592 244.278 55.616 244.598 56.704V59.2H231.83ZM288.066 93.28C287.554 94.368 286.754 95.392 285.666 96.352C284.578 97.312 283.33 98.144 281.922 98.848C280.514 99.552 278.978 100.096 277.314 100.48C275.65 100.928 273.954 101.152 272.226 101.152C268.45 101.152 265.122 100.576 262.242 99.424C259.362 98.208 256.962 96.512 255.042 94.336C253.122 92.096 251.65 89.44 250.626 86.368C249.666 83.296 249.186 79.84 249.186 76C249.186 67.808 251.074 61.568 254.85 57.28C258.626 52.992 263.97 50.848 270.882 50.848C273.122 50.848 275.33 51.168 277.506 51.808C279.682 52.384 281.602 53.376 283.266 54.784C284.994 56.192 286.37 58.08 287.394 60.448C288.482 62.752 289.026 65.632 289.026 69.088C289.026 70.176 288.962 71.296 288.834 72.448C288.77 73.536 288.61 74.72 288.354 76H258.402C258.402 78.688 258.722 81.216 259.362 83.584C260.066 85.888 261.09 87.904 262.434 89.632C263.778 91.36 265.474 92.736 267.522 93.76C269.57 94.72 271.97 95.2 274.722 95.2C276.962 95.2 279.234 94.88 281.538 94.24C283.842 93.6 285.57 92.768 286.722 91.744L288.066 93.28ZM270.498 55.072C266.85 55.072 264.066 56.32 262.146 58.816C260.226 61.248 259.074 65.568 258.69 71.776H279.81C279.874 71.2 279.906 70.656 279.906 70.144C279.97 69.568 280.002 69.024 280.002 68.512C280.002 64.416 279.234 61.152 277.698 58.72C276.162 56.288 273.762 55.072 270.498 55.072ZM348.923 100H328.283V97.6C330.011 96.704 331.899 95.936 333.947 95.296V72.544C333.947 67.68 333.243 63.84 331.835 61.024C330.427 58.208 327.867 56.8 324.155 56.8C322.555 56.8 321.051 57.088 319.643 57.664C318.299 58.24 317.083 59.04 315.995 60.064C314.971 61.024 314.075 62.144 313.307 63.424C312.539 64.64 311.931 65.92 311.483 67.264V95.296C313.467 95.68 315.387 96.448 317.243 97.6V100H296.507V97.6C298.107 96.768 300.219 96 302.843 95.296V57.568L296.507 56.8V54.304C298.171 53.6 300.091 52.96 302.267 52.384C304.443 51.808 306.715 51.296 309.083 50.848H311.483V61.6H311.579C312.923 58.656 314.843 56.128 317.339 54.016C319.899 51.904 322.971 50.848 326.555 50.848C329.115 50.848 331.387 51.168 333.371 51.808C335.419 52.384 337.115 53.44 338.459 54.976C339.803 56.512 340.827 58.592 341.531 61.216C342.235 63.776 342.587 67.04 342.587 71.008V95.296C345.147 95.744 347.259 96.512 348.923 97.6V100ZM351.971 54.304C354.403 52.768 356.963 51.68 359.651 51.04V42.88C360.483 42.176 361.443 41.568 362.531 41.056C363.683 40.48 364.803 39.936 365.891 39.424H368.291V52H382.691V56.8H368.291V84.64C368.291 88.48 368.899 91.2 370.115 92.8C371.331 94.4 373.155 95.2 375.587 95.2C376.739 95.2 378.179 95.136 379.907 95.008C381.635 94.816 383.107 94.496 384.323 94.048L384.995 95.488C384.483 96.064 383.747 96.672 382.787 97.312C381.891 97.952 380.835 98.56 379.619 99.136C378.467 99.712 377.187 100.192 375.779 100.576C374.371 100.96 372.931 101.152 371.459 101.152C367.619 101.152 364.675 100.064 362.627 97.888C360.643 95.712 359.651 92.192 359.651 87.328V56.8H351.971V54.304Z" fill="#888888"/>
<path d="M204.16 145L203.08 148.552H202.456C202.376 147.768 202.312 146.976 202.264 146.176C202.232 145.376 202.216 144.592 202.216 143.824H203.848C204.04 143.6 204.256 143.248 204.496 142.768C204.736 142.288 204.96 141.672 205.168 140.92C205.392 140.152 205.576 139.24 205.72 138.184C205.88 137.112 205.96 135.864 205.96 134.44C205.624 134.344 205.32 134.224 205.048 134.08C204.776 133.936 204.528 133.784 204.304 133.624V133H214.504V133.624C214.072 133.912 213.544 134.104 212.92 134.2V143.824H215.056C215.072 144.592 215.056 145.376 215.008 146.176C214.96 146.976 214.888 147.768 214.792 148.552H214.192L213.112 145H204.16ZM207.28 134.2C207.28 135.64 207.208 136.896 207.064 137.968C206.92 139.04 206.744 139.96 206.536 140.728C206.344 141.48 206.136 142.112 205.912 142.624C205.688 143.12 205.488 143.52 205.312 143.824H210.76V134.2H207.28ZM216.742 139C216.742 137.992 216.87 137.104 217.126 136.336C217.398 135.552 217.782 134.896 218.278 134.368C218.774 133.824 219.366 133.416 220.054 133.144C220.758 132.856 221.534 132.712 222.382 132.712C223.374 132.712 224.23 132.864 224.95 133.168C225.67 133.472 226.254 133.904 226.702 134.464C227.166 135.008 227.502 135.664 227.71 136.432C227.934 137.2 228.046 138.056 228.046 139C228.046 141.016 227.534 142.568 226.51 143.656C225.486 144.744 224.11 145.288 222.382 145.288C221.422 145.288 220.59 145.144 219.886 144.856C219.182 144.552 218.598 144.128 218.134 143.584C217.67 143.024 217.318 142.36 217.078 141.592C216.854 140.808 216.742 139.944 216.742 139ZM219.046 139C219.046 139.72 219.11 140.4 219.238 141.04C219.382 141.68 219.598 142.24 219.886 142.72C220.19 143.184 220.582 143.552 221.062 143.824C221.542 144.096 222.118 144.232 222.79 144.232C223.654 144.232 224.358 143.808 224.902 142.96C225.462 142.112 225.742 140.792 225.742 139C225.742 138.264 225.67 137.584 225.526 136.96C225.398 136.32 225.19 135.768 224.902 135.304C224.614 134.824 224.246 134.448 223.798 134.176C223.35 133.904 222.814 133.768 222.19 133.768C221.246 133.768 220.486 134.192 219.91 135.04C219.334 135.888 219.046 137.208 219.046 139ZM233.991 145H229.767V144.4C230.295 144.144 230.823 143.952 231.351 143.824L231.711 134.44C231.375 134.312 231.079 134.176 230.823 134.032C230.567 133.888 230.335 133.752 230.127 133.624V133H234.807L237.279 140.008L237.735 141.664H237.807L238.311 139.984L240.879 133H245.415V133.624C245.207 133.752 244.975 133.864 244.719 133.96C244.463 134.056 244.167 134.136 243.831 134.2L244.311 143.824C244.839 143.92 245.367 144.112 245.895 144.4V145H240.807V144.4C240.967 144.32 241.159 144.232 241.383 144.136C241.607 144.04 241.895 143.936 242.247 143.824L241.767 134.104H241.575L237.639 145H236.991L233.103 134.104H232.911L232.551 143.824C233.127 144 233.607 144.192 233.991 144.4V145ZM256.488 141.856C256.488 142.208 256.496 142.512 256.512 142.768C256.528 143.024 256.544 143.296 256.56 143.584L258.216 143.824V144.328C257.816 144.536 257.368 144.72 256.872 144.88C256.392 145.04 255.928 145.16 255.48 145.24H254.88C254.72 144.872 254.624 144.472 254.592 144.04C254.56 143.592 254.536 143.104 254.52 142.576H254.4C254.336 142.896 254.208 143.224 254.016 143.56C253.84 143.88 253.6 144.168 253.296 144.424C253.008 144.68 252.664 144.888 252.264 145.048C251.864 145.208 251.408 145.288 250.896 145.288C249.92 145.288 249.12 144.992 248.496 144.4C247.888 143.808 247.584 143.032 247.584 142.072C247.584 141.336 247.728 140.736 248.016 140.272C248.32 139.792 248.76 139.416 249.336 139.144C249.912 138.872 250.624 138.68 251.472 138.568C252.32 138.44 253.304 138.344 254.424 138.28C254.488 137.592 254.504 136.976 254.472 136.432C254.456 135.872 254.368 135.4 254.208 135.016C254.064 134.616 253.84 134.312 253.536 134.104C253.248 133.88 252.864 133.768 252.384 133.768C252.16 133.768 251.904 133.784 251.616 133.816C251.344 133.832 251.072 133.896 250.8 134.008L249.672 136.888H249.048C248.888 136.408 248.744 135.912 248.616 135.4C248.504 134.888 248.432 134.384 248.4 133.888C249.008 133.52 249.68 133.232 250.416 133.024C251.168 132.816 252 132.712 252.912 132.712C253.728 132.712 254.376 132.832 254.856 133.072C255.352 133.296 255.728 133.592 255.984 133.96C256.24 134.328 256.408 134.736 256.488 135.184C256.568 135.632 256.608 136.08 256.608 136.528C256.608 137.488 256.584 138.416 256.536 139.312C256.504 140.192 256.488 141.04 256.488 141.856ZM251.856 143.8C252.256 143.8 252.608 143.72 252.912 143.56C253.216 143.4 253.472 143.208 253.68 142.984C253.888 142.76 254.056 142.536 254.184 142.312C254.312 142.072 254.4 141.872 254.448 141.712V139.192C253.52 139.192 252.76 139.24 252.168 139.336C251.576 139.432 251.112 139.584 250.776 139.792C250.44 140 250.208 140.264 250.08 140.584C249.952 140.888 249.888 141.24 249.888 141.64C249.888 142.328 250.064 142.864 250.416 143.248C250.768 143.616 251.248 143.8 251.856 143.8ZM265.538 133H270.626V133.624C270.45 133.72 270.242 133.816 270.002 133.912C269.778 134.008 269.506 134.104 269.186 134.2V140.776L268.922 143.008H269.042L269.978 141.208L275.114 133H278.354V133.624C277.842 133.912 277.314 134.104 276.77 134.2V143.824C277.074 143.904 277.362 143.992 277.634 144.088C277.906 144.168 278.146 144.272 278.354 144.4V145H273.266V144.4C273.714 144.144 274.194 143.952 274.706 143.824V136.96L274.946 135.064H274.826L273.914 136.864L268.826 145H265.538V144.4C265.81 144.272 266.074 144.168 266.33 144.088C266.586 143.992 266.85 143.904 267.122 143.824V134.2C266.498 134.104 265.97 133.912 265.538 133.624V133ZM292.933 133H297.565V133.624C297.405 133.752 297.189 133.864 296.917 133.96C296.661 134.056 296.341 134.168 295.957 134.296C295.413 134.952 294.837 135.616 294.229 136.288C293.621 136.96 292.981 137.632 292.309 138.304C292.661 138.688 293.029 139.112 293.413 139.576C293.813 140.04 294.213 140.52 294.613 141.016C295.013 141.512 295.413 142 295.813 142.48C296.213 142.96 296.605 143.408 296.989 143.824L298.117 144.4V145H295.309L294.541 144.448C293.821 143.584 293.165 142.72 292.573 141.856C291.981 140.992 291.381 140.144 290.773 139.312H289.813V143.824C290.133 143.904 290.421 143.992 290.677 144.088C290.949 144.168 291.181 144.272 291.373 144.4V145H286.069V144.4C286.501 144.144 287.029 143.952 287.653 143.824V134.2C287.093 134.088 286.565 133.896 286.069 133.624V133H290.989V133.624C290.829 133.736 290.653 133.84 290.461 133.936C290.285 134.032 290.069 134.12 289.813 134.2V138.688L290.917 138.448C291.557 137.712 292.165 137.024 292.741 136.384C293.317 135.744 293.853 135.048 294.349 134.296C294.077 134.184 293.821 134.08 293.581 133.984C293.357 133.872 293.141 133.752 292.933 133.624V133ZM309.661 141.496C309.661 142.136 309.517 142.688 309.229 143.152C308.941 143.6 308.549 143.968 308.053 144.256C307.573 144.544 307.013 144.76 306.373 144.904C305.733 145.032 305.061 145.096 304.357 145.096C303.845 145.096 303.437 145.088 303.133 145.072C302.829 145.072 302.573 145.064 302.365 145.048C302.157 145.032 301.981 145.016 301.837 145C301.693 145 301.533 145 301.357 145H299.053V144.4C299.549 144.144 300.077 143.952 300.637 143.824V134.2C300.029 134.088 299.501 133.896 299.053 133.624V133H301.213C301.597 133 301.925 133 302.197 133C302.469 132.984 302.725 132.968 302.965 132.952C303.205 132.936 303.445 132.928 303.685 132.928C303.925 132.912 304.189 132.904 304.477 132.904C305.885 132.904 306.981 133.12 307.765 133.552C308.549 133.968 308.941 134.704 308.941 135.76C308.941 136.144 308.861 136.488 308.701 136.792C308.541 137.096 308.333 137.36 308.077 137.584C307.821 137.808 307.533 138 307.213 138.16C306.893 138.304 306.581 138.408 306.277 138.472C306.725 138.504 307.149 138.592 307.549 138.736C307.965 138.88 308.325 139.08 308.629 139.336C308.949 139.576 309.197 139.88 309.373 140.248C309.565 140.6 309.661 141.016 309.661 141.496ZM302.797 143.968C303.021 144.016 303.301 144.04 303.637 144.04C303.989 144.04 304.277 144.04 304.501 144.04C305.445 144.04 306.149 143.84 306.613 143.44C307.077 143.024 307.309 142.44 307.309 141.688C307.309 140.904 307.029 140.32 306.469 139.936C305.909 139.536 305.189 139.336 304.309 139.336H302.797V143.968ZM302.797 138.616L305.461 138.376C305.749 138.232 306.037 137.968 306.325 137.584C306.629 137.184 306.781 136.664 306.781 136.024C306.781 135.24 306.541 134.704 306.061 134.416C305.597 134.112 304.909 133.96 303.997 133.96C303.821 133.96 303.621 133.968 303.397 133.984C303.173 133.984 302.973 134.008 302.797 134.056V138.616ZM320.637 141.856C320.637 142.208 320.645 142.512 320.661 142.768C320.677 143.024 320.693 143.296 320.709 143.584L322.365 143.824V144.328C321.965 144.536 321.517 144.72 321.021 144.88C320.541 145.04 320.077 145.16 319.629 145.24H319.029C318.869 144.872 318.773 144.472 318.741 144.04C318.709 143.592 318.685 143.104 318.669 142.576H318.549C318.485 142.896 318.357 143.224 318.165 143.56C317.989 143.88 317.749 144.168 317.445 144.424C317.157 144.68 316.813 144.888 316.413 145.048C316.013 145.208 315.557 145.288 315.045 145.288C314.069 145.288 313.269 144.992 312.645 144.4C312.037 143.808 311.733 143.032 311.733 142.072C311.733 141.336 311.877 140.736 312.165 140.272C312.469 139.792 312.909 139.416 313.485 139.144C314.061 138.872 314.773 138.68 315.621 138.568C316.469 138.44 317.453 138.344 318.573 138.28C318.637 137.592 318.653 136.976 318.621 136.432C318.605 135.872 318.517 135.4 318.357 135.016C318.213 134.616 317.989 134.312 317.685 134.104C317.397 133.88 317.013 133.768 316.533 133.768C316.309 133.768 316.053 133.784 315.765 133.816C315.493 133.832 315.221 133.896 314.949 134.008L313.821 136.888H313.197C313.037 136.408 312.893 135.912 312.765 135.4C312.653 134.888 312.581 134.384 312.549 133.888C313.157 133.52 313.829 133.232 314.565 133.024C315.317 132.816 316.149 132.712 317.061 132.712C317.877 132.712 318.525 132.832 319.005 133.072C319.501 133.296 319.877 133.592 320.133 133.96C320.389 134.328 320.557 134.736 320.637 135.184C320.717 135.632 320.757 136.08 320.757 136.528C320.757 137.488 320.733 138.416 320.685 139.312C320.653 140.192 320.637 141.04 320.637 141.856ZM316.005 143.8C316.405 143.8 316.757 143.72 317.061 143.56C317.365 143.4 317.621 143.208 317.829 142.984C318.037 142.76 318.205 142.536 318.333 142.312C318.461 142.072 318.549 141.872 318.597 141.712V139.192C317.669 139.192 316.909 139.24 316.317 139.336C315.725 139.432 315.261 139.584 314.925 139.792C314.589 140 314.357 140.264 314.229 140.584C314.101 140.888 314.037 141.24 314.037 141.64C314.037 142.328 314.213 142.864 314.565 143.248C314.917 143.616 315.397 143.8 316.005 143.8ZM328.986 149.8H323.658V149.2C324.202 148.944 324.73 148.752 325.242 148.624V134.392L323.658 134.2V133.576C324.17 133.352 324.69 133.176 325.218 133.048C325.762 132.904 326.29 132.792 326.802 132.712H327.402V135.4H327.426C327.746 134.584 328.194 133.936 328.77 133.456C329.346 132.96 330.098 132.712 331.026 132.712C332.45 132.712 333.554 133.184 334.338 134.128C335.122 135.072 335.514 136.608 335.514 138.736C335.514 139.744 335.378 140.656 335.106 141.472C334.85 142.288 334.474 142.976 333.978 143.536C333.498 144.096 332.906 144.528 332.202 144.832C331.514 145.136 330.746 145.288 329.898 145.288C329.306 145.288 328.842 145.248 328.506 145.168C328.17 145.104 327.802 144.984 327.402 144.808V148.624C327.658 148.656 327.914 148.712 328.17 148.792C328.426 148.888 328.698 149.024 328.986 149.2V149.8ZM330.258 134.2C329.474 134.2 328.85 134.448 328.386 134.944C327.922 135.44 327.594 136.12 327.402 136.984V143.704C327.69 143.88 328.01 144.016 328.362 144.112C328.73 144.192 329.202 144.232 329.778 144.232C330.306 144.232 330.778 144.096 331.194 143.824C331.626 143.552 331.986 143.168 332.274 142.672C332.578 142.176 332.81 141.6 332.97 140.944C333.13 140.272 333.21 139.536 333.21 138.736C333.21 138.08 333.154 137.48 333.042 136.936C332.946 136.376 332.778 135.896 332.538 135.496C332.314 135.08 332.01 134.76 331.626 134.536C331.258 134.312 330.802 134.2 330.258 134.2ZM344.725 145H339.397V144.4C339.893 144.144 340.421 143.952 340.981 143.824V134.056H338.749L337.693 136.936H337.069C336.989 136.248 336.925 135.576 336.877 134.92C336.829 134.248 336.797 133.608 336.781 133H347.341C347.325 133.576 347.293 134.208 347.245 134.896C347.213 135.568 347.149 136.248 347.053 136.936H346.429L345.373 134.056H343.141V143.824C343.893 144.016 344.421 144.208 344.725 144.4V145ZM348.952 133H354.04V133.624C353.864 133.72 353.656 133.816 353.416 133.912C353.192 134.008 352.92 134.104 352.6 134.2V140.776L352.336 143.008H352.456L353.392 141.208L358.528 133H361.768V133.624C361.256 133.912 360.728 134.104 360.184 134.2V143.824C360.488 143.904 360.776 143.992 361.048 144.088C361.32 144.168 361.56 144.272 361.768 144.4V145H356.68V144.4C357.128 144.144 357.608 143.952 358.12 143.824V136.96L358.36 135.064H358.24L357.328 136.864L352.24 145H348.952V144.4C349.224 144.272 349.488 144.168 349.744 144.088C350 143.992 350.264 143.904 350.536 143.824V134.2C349.912 134.104 349.384 133.912 348.952 133.624V133ZM368.783 149.8H363.455V149.2C363.999 148.944 364.527 148.752 365.039 148.624V134.392L363.455 134.2V133.576C363.967 133.352 364.487 133.176 365.015 133.048C365.559 132.904 366.087 132.792 366.599 132.712H367.199V135.4H367.223C367.543 134.584 367.991 133.936 368.567 133.456C369.143 132.96 369.895 132.712 370.823 132.712C372.247 132.712 373.351 133.184 374.135 134.128C374.919 135.072 375.311 136.608 375.311 138.736C375.311 139.744 375.175 140.656 374.903 141.472C374.647 142.288 374.271 142.976 373.775 143.536C373.295 144.096 372.703 144.528 371.999 144.832C371.311 145.136 370.543 145.288 369.695 145.288C369.103 145.288 368.639 145.248 368.303 145.168C367.967 145.104 367.599 144.984 367.199 144.808V148.624C367.455 148.656 367.711 148.712 367.967 148.792C368.223 148.888 368.495 149.024 368.783 149.2V149.8ZM370.055 134.2C369.271 134.2 368.647 134.448 368.183 134.944C367.719 135.44 367.391 136.12 367.199 136.984V143.704C367.487 143.88 367.807 144.016 368.159 144.112C368.527 144.192 368.999 144.232 369.575 144.232C370.103 144.232 370.575 144.096 370.991 143.824C371.423 143.552 371.783 143.168 372.071 142.672C372.375 142.176 372.607 141.6 372.767 140.944C372.927 140.272 373.007 139.536 373.007 138.736C373.007 138.08 372.951 137.48 372.839 136.936C372.743 136.376 372.575 135.896 372.335 135.496C372.111 135.08 371.807 134.76 371.423 134.536C371.055 134.312 370.599 134.2 370.055 134.2ZM380.985 137.896C381.257 137.864 381.561 137.824 381.897 137.776C382.233 137.728 382.721 137.704 383.361 137.704C384.561 137.704 385.521 137.984 386.241 138.544C386.977 139.104 387.345 139.984 387.345 141.184C387.345 141.824 387.225 142.392 386.985 142.888C386.761 143.368 386.441 143.776 386.025 144.112C385.609 144.432 385.113 144.68 384.537 144.856C383.961 145.016 383.329 145.096 382.641 145.096C382.209 145.096 381.721 145.08 381.177 145.048C380.649 145.016 380.081 145 379.473 145H377.241V144.4C377.513 144.24 377.777 144.12 378.033 144.04C378.289 143.96 378.553 143.888 378.825 143.824V134.2C378.521 134.152 378.241 134.08 377.985 133.984C377.729 133.872 377.481 133.752 377.241 133.624V133H382.425V133.624C382.057 133.848 381.577 134.04 380.985 134.2V137.896ZM380.985 143.968C381.193 143.984 381.401 144 381.609 144.016C381.817 144.032 382.033 144.04 382.257 144.04C384.065 144.04 384.969 143.08 384.969 141.16C384.969 140.712 384.897 140.336 384.753 140.032C384.625 139.712 384.441 139.464 384.201 139.288C383.977 139.096 383.713 138.96 383.409 138.88C383.105 138.8 382.785 138.76 382.449 138.76C382.225 138.76 381.985 138.768 381.729 138.784C381.473 138.784 381.225 138.808 380.985 138.856V143.968ZM393.273 145H388.113V144.4C388.337 144.288 388.561 144.184 388.785 144.088C389.009 143.992 389.257 143.904 389.529 143.824V134.2C388.921 134.088 388.441 133.896 388.089 133.624V133H393.273V133.624C393.081 133.752 392.849 133.864 392.577 133.96C392.305 134.04 392.009 134.12 391.689 134.2V143.824C391.961 143.904 392.225 143.992 392.481 144.088C392.737 144.168 393.001 144.272 393.273 144.4V145Z" fill="#888888"/>
</g>
<defs>
<filter id="filter0_d" x="0.440002" y="20" width="396.833" height="137.8" filterUnits="userSpaceOnUse" color-interpolation-filters="sRGB">
<feFlood flood-opacity="0" result="BackgroundImageFix"/>
<feColorMatrix in="SourceAlpha" type="matrix" values="0 0 0 0 0 0 0 0 0 0 0 0 0 0 0 0 0 0 127 0"/>
<feOffset dy="4"/>
<feGaussianBlur stdDeviation="2"/>
<feColorMatrix type="matrix" values="0 0 0 0 0 0 0 0 0 0 0 0 0 0 0 0 0 0 0.25 0"/>
<feBlend mode="normal" in2="BackgroundImageFix" result="effect1_dropShadow"/>
<feBlend mode="normal" in="SourceGraphic" in2="effect1_dropShadow" result="shape"/>
</filter>
</defs>
</svg>
